PathFileType	4	(X/Y/Z)	pose_F01_0-96.trc
DataRate	CameraRate	NumFrames	NumMarkers	Units	OrigDataRate	OrigDataStartFrame	OrigNumFrames
30	30	7	21	m	30	24	96
Frame#	Time	CHip			RHip			RKnee			RAnkle			RBigToe			RSmallToe			RHeel			LHip			LKnee			LAnkle			LBigToe			LSmallToe			LHeel			Neck			Nose			RShoulder			RElbow			RWrist			LShoulder			LElbow			LWrist			
		X1	Y1	Z1	X2	Y2	Z2	X3	Y3	Z3	X4	Y4	Z4	X5	Y5	Z5	X6	Y6	Z6	X7	Y7	Z7	X8	Y8	Z8	X9	Y9	Z9	X10	Y10	Z10	X11	Y11	Z11	X12	Y12	Z12	X13	Y13	Z13	X14	Y14	Z14	X15	Y15	Z15	X16	Y16	Z16	X17	Y17	Z17	X18	Y18	Z18	X19	Y19	Z19	X20	Y20	Z20	X21	Y21	Z21	
24	0.8	-0.17942085803762126	1.8898054239457747	-0.5762582857212554	-0.19011976325803337	1.887000361577793	-0.5170074099995996	-0.20589926518325766	1.7334616367415878	-0.4704378811773754	-0.18341950230810777	1.6016786178052664	-0.4698459006261222	-0.21674235381028442	1.5646175933999666	-0.4335467826724482	-0.2099041487349269	1.573622324995506	-0.41471403711735627	-0.1766840851763931	1.5965973264149778	-0.49001262374313015	-0.1664571469455404	1.8930242350665876	-0.6407161272325653	-0.1850673051530477	1.7357672408984524	-0.6242819232635054	-0.1576449805300257	1.5978916428703775	-0.6536334797009118	-0.18040410576849805	1.5576415026179822	-0.6422188409821137	-0.17063976299100092	1.5638001420487142	-0.6781859043058404	-0.1464540714699963	1.5877041646533694	-0.6512295170167464	-0.17718983305892214	2.0391161072871284	-0.5850022271636496	-0.2018048782160719	2.094680489370551	-0.5630963749017155	-0.18922673740086474	2.034919462371306	-0.49636691247736475	-0.21092805743745444	1.9694247210721383	-0.45410445020485285	-0.20232333989155094	2.038537110353594	-0.5051583878337077	-0.16081371649840087	2.0472034719601875	-0.6761230596692653	-0.1861521869358787	1.9921334564657556	-0.6839671268517434	-0.239117354107232	1.9548054418544838	-0.6534900738052433
25	0.8333333333333334	-0.17949388205560274	1.8893654779797135	-0.5672101968700054	-0.1882005871547148	1.8861787461907873	-0.5015036891816076	-0.2036015170753331	1.734314091042385	-0.46399754012971256	-0.18342411884023047	1.6017243862996	-0.4698570355294372	-0.21547723860814533	1.5636953448351798	-0.4301664596548392	-0.20862814952559272	1.572479081667956	-0.4113141995177826	-0.17764470244469577	1.596558868865835	-0.49340387581550693	-0.16591814508984906	1.893592556559629	-0.6288037943020784	-0.18173069399974795	1.7424619205760656	-0.6243396700763238	-0.15833164101669603	1.5966553718009233	-0.656954800389536	-0.1805485064773869	1.5550854844956732	-0.6419116204789715	-0.17105435794898616	1.5628295482270609	-0.6776561100022528	-0.14862649298718264	1.5876779280666025	-0.6490835953058192	-0.1778310046631458	2.0397840082842507	-0.568451033473954	-0.2050840282021884	2.092813846407752	-0.5466475764410363	-0.19030180724616325	2.034477136442212	-0.48215197280247474	-0.2137989241681925	1.9693058773502186	-0.446286043124939	-0.20657458192191244	2.0344571174754575	-0.49168484389637046	-0.164659888327919	2.04902179260078	-0.6604514815428824	-0.1870277344469207	1.9980691106573736	-0.6680276908870831	-0.23475638741288157	1.9562417715838762	-0.6489953957688055
26	0.8666666666666667	-0.1800814633310284	1.8893248551617357	-0.5586233088613385	-0.19155982067937966	1.88602243110782	-0.49375117070849733	-0.20281430574539663	1.7359908578278411	-0.46066222022478837	-0.18341331893712734	1.6018505532109562	-0.4698381497579936	-0.2151653452791782	1.5644531847016552	-0.43092628218100504	-0.20770149534811438	1.5731855267382835	-0.40801620108203746	-0.1765657332718668	1.5955581183585623	-0.49026778517081604	-0.1695926111937743	1.8949261056243683	-0.6214025236493774	-0.17858518834656129	1.738587102481231	-0.6230681715046394	-0.15763741329840425	1.597983459343521	-0.6536384714369905	-0.18240346736554336	1.5565155036173537	-0.6402486739041306	-0.17082581294888702	1.5641883329543353	-0.678140937271973	-0.1464176048654516	1.5877905081056838	-0.6513650903576427	-0.18295361110292885	2.0419778557211976	-0.5589654320324522	-0.20728327579322622	2.0914826635227035	-0.5362452210034013	-0.19324352171887163	2.03580288325928	-0.4751107075238103	-0.21765298294674335	1.970151848018494	-0.4335673336289788	-0.21139985562170102	2.037098173977027	-0.49128209067503026	-0.16721754436282033	2.0512323733026085	-0.6500085815781057	-0.1908118465408581	1.997713577803337	-0.6519890463111919	-0.23769065180371754	1.9546498862592645	-0.6295618182846551
27	0.9	-0.18077980603885763	1.890063500493189	-0.5529341176902435	-0.1922208397652399	1.8865482855857543	-0.4881184251907228	-0.2006381030252562	1.7371242797035686	-0.4631202758740566	-0.1808987515412589	1.6015980044397697	-0.4728108885013668	-0.21498604264277596	1.5635817925598003	-0.43108862819058097	-0.20950774385193763	1.5741671818286174	-0.415240663313392	-0.17631854733224286	1.594882020848564	-0.4903389980418616	-0.1703860452459622	1.8941483967383166	-0.6156346581750782	-0.17756108489050967	1.743858112297877	-0.6204955305154645	-0.15761708437510286	1.5979689479869241	-0.6535365886032458	-0.1794212205160556	1.5567198834695963	-0.6392597429324985	-0.16987281754438793	1.5641522527892193	-0.6750587214146654	-0.14638235052842186	1.5902362351708428	-0.6516446329421068	-0.1839640490549527	2.042973630424351	-0.5534099380175946	-0.20949851303320913	2.091064854061449	-0.52552887364201	-0.19137071369138933	2.0379545508818273	-0.4691999014319263	-0.21269887713856528	1.9694779364252832	-0.41710696749585335	-0.20715307335022226	2.0260620009418786	-0.46573287994926904	-0.1697503325423054	2.0509058387340175	-0.6393749861353611	-0.19413078240739992	1.9948223488847772	-0.6433294401905677	-1.4222957806723595	1.8672519163393702	0.6245402930444219
28	0.9333333333333333	-0.18127391657950695	1.8900334656939073	-0.544430511908675	-0.19353644254791677	1.8869211461401787	-0.48269212453124066	-0.2015140053155823	1.7397285243306697	-0.45812017588220827	-0.18310365181161833	1.6029560368945923	-0.470282080174412	-0.21723657534475027	1.5650974679187208	-0.42862612195743055	-0.21037773381584277	1.5739622988760507	-0.40978189558637185	-0.17666459647442573	1.596597916840461	-0.48995177679631613	-0.1698517752474247	1.894608618608518	-0.6125012806459602	-0.1764398888394787	1.7451130845072365	-0.617643254202552	-0.15689235993980874	1.6019847836033767	-0.6505152233371058	-0.17947959000149966	1.5568801590949062	-0.6391873854119023	-0.16992762047241886	1.5643938971509577	-0.6750280031897979	-0.14864097523398526	1.5912521144115586	-0.6491496010076886	-0.1821963719927537	2.045201485248876	-0.547471520660561	-0.21148310752158253	2.090556598277854	-0.5148279436603377	-0.1923407551386741	2.0377876358016622	-0.46365003282712347	-0.21362902538776674	1.969529366419476	-0.4117392671270527	-0.20593378425571238	2.028301579461418	-0.4616762974152143	-0.16898281572154586	2.0521597224621546	-0.6365088617515672	-0.1955144280527714	1.9934419621384936	-0.6380147796895345	-1.4392163869288026	1.867082099715431	0.6482087050223581
29	0.9666666666666667	-0.18251900889649225	1.8913215792937976	-0.5389739208504449	-0.1946718052271855	1.8883357550803619	-0.4772013218115889	-0.1993231283016356	1.7410329422672528	-0.4605069011237669	-0.18314032856858312	1.6031298022435678	-0.470266425593348	-0.21338207704066445	1.5656694314461335	-0.4329081899818136	-0.20853105831805444	1.5746145542521277	-0.4118710975508798	-0.1756879178574439	1.5964648785606037	-0.48668384573365714	-0.17028585524537881	1.8960406516075088	-0.6040043228459653	-0.17991620628843905	1.7462307256268699	-0.6098145491464959	-0.15688458678652822	1.6019684879122629	-0.6505504858660927	-0.17943050126334217	1.5568086323386168	-0.6391868536988842	-0.16985832612252155	1.564209232159343	-0.674967856464314	-0.14658594056484467	1.591804163022837	-0.6514949904384519	-0.18430899461262654	2.0448742092696293	-0.5367927095671773	-0.20960865286927258	2.0904094831820865	-0.5085301067127741	-0.1933405457435174	2.035108260643867	-0.44911216478901467	-0.2152943444296094	1.9731362813032034	-0.409962754300849	-0.2082889025419671	2.0336327159922125	-0.45419387442732395	-0.1701334301165336	2.0531953644763727	-0.6310768997149491	-0.19584202655340088	1.9980983397389012	-0.6305626680862987	-0.24179585464489237	1.9562432813574155	-0.5969738770259658
30	1.0	-0.18650806798051695	1.893740500558053	-0.5347508295795201	-0.19562893798123693	1.8907446454173236	-0.4722271628444152	-0.19963175127609387	1.7410104972859441	-0.4601896742295105	-0.1834201327305433	1.6018797159901	-0.4696330480457301	-0.21548649853187357	1.5661820438061536	-0.4308541766401843	-0.20864367084307586	1.5748774474084886	-0.411849516698027	-0.17570270391073597	1.5963774634808796	-0.48654922690323055	-0.1734882231992298	1.9007756645519418	-0.5969336111657059	-0.1797049795802674	1.7502682904017586	-0.6104084364121701	-0.15868770146948302	1.6060131305475553	-0.6491777782583741	-0.17907707972045864	1.5579871940209917	-0.639855447029055	-0.16944919143131967	1.5651378691223106	-0.6755984514718453	-0.14994464110286418	1.596799204234107	-0.6444631557659235	-0.18346246248010076	2.046062571818206	-0.533938925386849	-0.20962906467492373	2.0902197543324434	-0.5002963071017665	-0.19329008718543322	2.037426682567575	-0.4410349227478695	-0.21417315949719012	1.9716815060058541	-0.40628316389112373	-0.2079858987681262	2.039673972570794	-0.4551756858229126	-0.1705272369881327	2.052915022718634	-0.6227109432805139	-0.19413453857576154	1.9992231000512504	-0.624764946067551	-0.23796545741582728	1.9585731168467324	-0.5935323795063121
